<svg xmlns="http://www.w3.org/2000/svg" width="724.5792236328125" height="598.8336181640625" viewBox="-559.407470703125 -274.69091796875 724.5792236328125 598.8336181640625"><title>Neo4j Graph Visualization</title><desc>Created using Neo4j (http://www.neo4j.com/)</desc><g class="layer relationships"><g class="relationship" transform="translate(-351.5525337430473 -245.69091093584706) rotate(364.3678124021896)"><path class="b-outline" fill="#A5ABB6" stroke="none" d="M 25 0.5 L 67.39974250018633 0.5 L 67.39974250018633 -0.5 L 25 -0.5 Z M 89.84896125018633 0.5 L 132.24870375037267 0.5 L 132.24870375037267 3.5 L 139.24870375037267 0 L 132.24870375037267 -3.5 L 132.24870375037267 -0.5 L 89.84896125018633 -0.5 Z"/><text text-anchor="middle" pointer-events="none" font-size="8px" fill="#000000" x="78.62435187518633" y="3" font-family="Helvetica Neue, Helvetica, Arial, sans-serif">HAS</text></g><g class="relationship" transform="translate(-351.5525337430473 -245.69091093584706) rotate(479.5508372142506)"><path class="b-outline" fill="#A5ABB6" stroke="none" d="M 24.018736134675446,-6.953439040707552 L 24.277555179777966,-5.987513214418485 A 360.0357949812764 360.0357949812764 0 0 1 84.31618872791259,-16.726474909863498 L 84.22412708411582,-17.72222821954489 A 361.0357949812764 361.0357949812764 0 0 0 24.018736134675446,-6.953439040707552 Z M 145.34333121388133,-18.17721927542277 L 145.2661043688928,-17.180205727664713 A 360.0357949812764 360.0357949812764 0 0 1 205.4579635760315,-7.336278573757731 L 204.7247340836052,-4.4272625010217475 L 212.36787266115317,-6.110245770219047 L 206.43560289926654,-11.214966670739042 L 205.70237340684025,-8.305950598003058 A 361.0357949812764 361.0357949812764 0 0 0 145.34333121388133,-18.17721927542277"/><text text-anchor="middle" pointer-events="none" font-size="8px" fill="#000000" x="114.77780553774082" y="-15.74544577535903" transform="rotate(180 114.77780553774082 -18.74544577535903)" font-family="Helvetica Neue, Helvetica, Arial, sans-serif">WORKS_WITH</text></g><g class="relationship" transform="translate(-187.7808584764029 -233.18191161398067) rotate(389.37676247776267)"><path class="b-outline" fill="#A5ABB6" stroke="none" d="M 25 0.5 L 70.76849740060756 0.5 L 70.76849740060756 -0.5 L 25 -0.5 Z M 133.51849740060754 0.5 L 179.28699480121512 0.5 L 179.28699480121512 3.5 L 186.28699480121512 0 L 179.28699480121512 -3.5 L 179.28699480121512 -0.5 L 133.51849740060754 -0.5 Z"/><text text-anchor="middle" pointer-events="none" font-size="8px" fill="#000000" x="102.14349740060756" y="3" font-family="Helvetica Neue, Helvetica, Arial, sans-serif">TURNED_INTO</text></g><g class="relationship" transform="translate(-468.2473864880006 -39.859793690456826) rotate(299.5508372142506)"><path class="b-outline" fill="#A5ABB6" stroke="none" d="M 24.018736134675446,-6.953439040707552 L 24.277555179777966,-5.987513214418485 A 360.0357949812764 360.0357949812764 0 0 1 93.74589247419135,-17.473499565907673 L 93.68002184772601,-18.471327737773493 A 361.0357949812764 361.0357949812764 0 0 0 24.018736134675446,-6.953439040707552 Z M 135.877331986024,-18.78545811575208 L 135.82632414579746,-17.78675986290716 A 360.0357949812764 360.0357949812764 0 0 1 205.4579635760315,-7.336278573757731 L 204.7247340836052,-4.4272625010217475 L 212.36787266115317,-6.110245770219047 L 206.43560289926654,-11.214966670739042 L 205.70237340684025,-8.305950598003058 A 361.0357949812764 361.0357949812764 0 0 0 135.877331986024,-18.78545811575208"/><text text-anchor="middle" pointer-events="none" font-size="8px" fill="#000000" x="114.77780553774082" y="-15.74544577535903" font-family="Helvetica Neue, Helvetica, Arial, sans-serif">PART_OF</text></g><g class="relationship" transform="translate(-230.67974349478956 -109.11325378497587) rotate(354.85968747083643)"><path class="b-outline" fill="#A5ABB6" stroke="none" d="M 25 0.5 L 55.90243263117533 0.5 L 55.90243263117533 -0.5 L 25 -0.5 Z M 165.03133888117532 0.5 L 195.93377151235066 0.5 L 195.93377151235066 3.5 L 202.93377151235066 0 L 195.93377151235066 -3.5 L 195.93377151235066 -0.5 L 165.03133888117532 -0.5 Z"/><text text-anchor="middle" pointer-events="none" font-size="8px" fill="#000000" x="110.46688575617533" y="3" font-family="Helvetica Neue, Helvetica, Arial, sans-serif">IMPLEMENTED_SOLUTION</text></g><g class="relationship" transform="translate(-230.67974349478956 -109.11325378497587) rotate(523.7480423406071)"><path class="b-outline" fill="#A5ABB6" stroke="none" d="M 25 0.5 L 95.81193870668378 0.5 L 95.81193870668378 -0.5 L 25 -0.5 Z M 144.64396995668378 0.5 L 215.45590866336755 0.5 L 215.45590866336755 3.5 L 222.45590866336755 0 L 215.45590866336755 -3.5 L 215.45590866336755 -0.5 L 144.64396995668378 -0.5 Z"/><text text-anchor="middle" pointer-events="none" font-size="8px" fill="#000000" x="120.22795433168378" y="3" transform="rotate(180 120.22795433168378 0)" font-family="Helvetica Neue, Helvetica, Arial, sans-serif">PARTNERS</text></g><g class="relationship" transform="translate(-215.43566184263548 67.18740324608669) rotate(265.05813208683344)"><path class="b-outline" fill="#A5ABB6" stroke="none" d="M 25 0.5 L 62.20189632218005 0.5 L 62.20189632218005 -0.5 L 25 -0.5 Z M 107.75658382218005 0.5 L 144.9584801443601 0.5 L 144.9584801443601 3.5 L 151.9584801443601 0 L 144.9584801443601 -3.5 L 144.9584801443601 -0.5 L 107.75658382218005 -0.5 Z"/><text text-anchor="middle" pointer-events="none" font-size="8px" fill="#000000" x="84.97924007218005" y="3" transform="rotate(180 84.97924007218005 0)" font-family="Helvetica Neue, Helvetica, Arial, sans-serif">FOUNDED</text></g><g class="relationship" transform="translate(-368.5914038219462 141.8434872295205) rotate(241.25723560753426)"><path class="b-outline" fill="#A5ABB6" stroke="none" d="M 25 0.5 L 76.2242377764427 0.5 L 76.2242377764427 -0.5 L 25 -0.5 Z M 124.0133002764427 0.5 L 175.2375380528854 0.5 L 175.2375380528854 3.5 L 182.2375380528854 0 L 175.2375380528854 -3.5 L 175.2375380528854 -0.5 L 124.0133002764427 -0.5 Z"/><text text-anchor="middle" pointer-events="none" font-size="8px" fill="#000000" x="100.1187690264427" y="3" transform="rotate(180 100.1187690264427 0)" font-family="Helvetica Neue, Helvetica, Arial, sans-serif">TYPES_OF</text></g><g class="relationship" transform="translate(-368.5914038219462 141.8434872295205) rotate(334.0129851605136)"><path class="b-outline" fill="#A5ABB6" stroke="none" d="M 25 0.5 L 57.79674203690233 0.5 L 57.79674203690233 -0.5 L 25 -0.5 Z M 105.58580453690233 0.5 L 138.38254657380466 0.5 L 138.38254657380466 3.5 L 145.38254657380466 0 L 138.38254657380466 -3.5 L 138.38254657380466 -0.5 L 105.58580453690233 -0.5 Z"/><text text-anchor="middle" pointer-events="none" font-size="8px" fill="#000000" x="81.69127328690233" y="3" font-family="Helvetica Neue, Helvetica, Arial, sans-serif">TYPES_OF</text></g><g class="relationship" transform="translate(-368.5914038219462 141.8434872295205) rotate(514.2860113628699)"><path class="b-outline" fill="#A5ABB6" stroke="none" d="M 25 0.5 L 62.4063849133494 0.5 L 62.4063849133494 -0.5 L 25 -0.5 Z M 110.1954474133494 0.5 L 147.6018323266988 0.5 L 147.6018323266988 3.5 L 154.6018323266988 0 L 147.6018323266988 -3.5 L 147.6018323266988 -0.5 L 110.1954474133494 -0.5 Z"/><text text-anchor="middle" pointer-events="none" font-size="8px" fill="#000000" x="86.3009161633494" y="3" transform="rotate(180 86.3009161633494 0)" font-family="Helvetica Neue, Helvetica, Arial, sans-serif">TYPES_OF</text></g><g class="relationship" transform="translate(-368.5914038219462 141.8434872295205) rotate(451.4597222311488)"><path class="b-outline" fill="#A5ABB6" stroke="none" d="M 25 0.5 L 30.622535408140294 0.5 L 30.622535408140294 -0.5 L 25 -0.5 Z M 78.4115979081403 0.5 L 84.03413331628059 0.5 L 84.03413331628059 3.5 L 91.03413331628059 0 L 84.03413331628059 -3.5 L 84.03413331628059 -0.5 L 78.4115979081403 -0.5 Z"/><text text-anchor="middle" pointer-events="none" font-size="8px" fill="#000000" x="54.517066658140294" y="3" transform="rotate(180 54.517066658140294 0)" font-family="Helvetica Neue, Helvetica, Arial, sans-serif">TYPES_OF</text></g><g class="relationship" transform="translate(-368.5914038219462 141.8434872295205) rotate(493.6125065507945)"><path class="b-outline" fill="#A5ABB6" stroke="none" d="M 25 0.5 L 34.64853189389984 0.5 L 34.64853189389984 -0.5 L 25 -0.5 Z M 82.43759439389984 0.5 L 92.08612628779969 0.5 L 92.08612628779969 3.5 L 99.08612628779969 0 L 92.08612628779969 -3.5 L 92.08612628779969 -0.5 L 82.43759439389984 -0.5 Z"/><text text-anchor="middle" pointer-events="none" font-size="8px" fill="#000000" x="58.54306314389984" y="3" transform="rotate(180 58.54306314389984 0)" font-family="Helvetica Neue, Helvetica, Arial, sans-serif">TYPES_OF</text></g><g class="relationship" transform="translate(-368.5914038219462 141.8434872295205) rotate(536.1380547582306)"><path class="b-outline" fill="#A5ABB6" stroke="none" d="M 25 0.5 L 26.270109015529016 0.5 L 26.270109015529016 -0.5 L 25 -0.5 Z M 74.05917151552902 0.5 L 75.32928053105803 0.5 L 75.32928053105803 3.5 L 82.32928053105803 0 L 75.32928053105803 -3.5 L 75.32928053105803 -0.5 L 74.05917151552902 -0.5 Z"/><text text-anchor="middle" pointer-events="none" font-size="8px" fill="#000000" x="50.164640265529016" y="3" transform="rotate(180 50.164640265529016 0)" font-family="Helvetica Neue, Helvetica, Arial, sans-serif">TYPES_OF</text></g><g class="relationship" transform="translate(-368.5914038219462 141.8434872295205) rotate(474.651875680991)"><path class="b-outline" fill="#A5ABB6" stroke="none" d="M 25 0.5 L 56.9415584542034 0.5 L 56.9415584542034 -0.5 L 25 -0.5 Z M 104.7306209542034 0.5 L 136.6721794084068 0.5 L 136.6721794084068 3.5 L 143.6721794084068 0 L 136.6721794084068 -3.5 L 136.6721794084068 -0.5 L 104.7306209542034 -0.5 Z"/><text text-anchor="middle" pointer-events="none" font-size="8px" fill="#000000" x="80.8360897042034" y="3" transform="rotate(180 80.8360897042034 0)" font-family="Helvetica Neue, Helvetica, Arial, sans-serif">TYPES_OF</text></g><g class="relationship" transform="translate(-368.5914038219462 141.8434872295205) rotate(383.6230932632566)"><path class="b-outline" fill="#A5ABB6" stroke="none" d="M 25 0.5 L 64.1050409172764 0.5 L 64.1050409172764 -0.5 L 25 -0.5 Z M 111.8941034172764 0.5 L 150.9991443345528 0.5 L 150.9991443345528 3.5 L 157.9991443345528 0 L 150.9991443345528 -3.5 L 150.9991443345528 -0.5 L 111.8941034172764 -0.5 Z"/><text text-anchor="middle" pointer-events="none" font-size="8px" fill="#000000" x="87.9995721672764" y="3" font-family="Helvetica Neue, Helvetica, Arial, sans-serif">TYPES_OF</text></g><g class="relationship" transform="translate(-368.5914038219462 141.8434872295205) rotate(261.0601830613622)"><path class="b-outline" fill="#A5ABB6" stroke="none" d="M 25 0.5 L 38.36721980178959 0.5 L 38.36721980178959 -0.5 L 25 -0.5 Z M 86.15628230178959 0.5 L 99.52350210357918 0.5 L 99.52350210357918 3.5 L 106.52350210357918 0 L 99.52350210357918 -3.5 L 99.52350210357918 -0.5 L 86.15628230178959 -0.5 Z"/><text text-anchor="middle" pointer-events="none" font-size="8px" fill="#000000" x="62.26175105178959" y="3" transform="rotate(180 62.26175105178959 0)" font-family="Helvetica Neue, Helvetica, Arial, sans-serif">TYPES_OF</text></g><g class="relationship" transform="translate(-4.855226381281682 188.52120605198007) rotate(291.80124943311046)"><path class="b-outline" fill="#A5ABB6" stroke="none" d="M 25 0.5 L 159.1380903890665 0.5 L 159.1380903890665 -0.5 L 25 -0.5 Z M 213.5912153890665 0.5 L 347.729305778133 0.5 L 347.729305778133 3.5 L 354.729305778133 0 L 347.729305778133 -3.5 L 347.729305778133 -0.5 L 213.5912153890665 -0.5 Z"/><text text-anchor="middle" pointer-events="none" font-size="8px" fill="#000000" x="186.3646528890665" y="3" font-family="Helvetica Neue, Helvetica, Arial, sans-serif">FUNDED_BY</text></g><g class="relationship" transform="translate(-4.855226381281682 188.52120605198007) rotate(532.2588511598913)"><path class="b-outline" fill="#A5ABB6" stroke="none" d="M 25 0.5 L 59.32052217525569 0.5 L 59.32052217525569 -0.5 L 25 -0.5 Z M 131.5548971752557 0.5 L 165.87541935051138 0.5 L 165.87541935051138 3.5 L 172.87541935051138 0 L 165.87541935051138 -3.5 L 165.87541935051138 -0.5 L 131.5548971752557 -0.5 Z"/><text text-anchor="middle" pointer-events="none" font-size="8px" fill="#000000" x="95.43770967525569" y="3" transform="rotate(180 95.43770967525569 0)" font-family="Helvetica Neue, Helvetica, Arial, sans-serif">PERFORMED_BY</text></g><g class="relationship" transform="translate(-4.855226381281682 188.52120605198007) rotate(263.3294218775763)"><path class="b-outline" fill="#A5ABB6" stroke="none" d="M 25 0.5 L 103.22099567117542 0.5 L 103.22099567117542 -0.5 L 25 -0.5 Z M 135.00224567117542 0.5 L 213.22324134235083 0.5 L 213.22324134235083 3.5 L 220.22324134235083 0 L 213.22324134235083 -3.5 L 213.22324134235083 -0.5 L 135.00224567117542 -0.5 Z"/><text text-anchor="middle" pointer-events="none" font-size="8px" fill="#000000" x="119.11162067117542" y="3" transform="rotate(180 119.11162067117542 0)" font-family="Helvetica Neue, Helvetica, Arial, sans-serif">TESTS</text></g><g class="relationship" transform="translate(-4.855226381281682 188.52120605198007) rotate(277.23477928269875)"><path class="b-outline" fill="#A5ABB6" stroke="none" d="M 25 0.5 L 73.22148637683503 0.5 L 73.22148637683503 -0.5 L 25 -0.5 Z M 105.00273637683503 0.5 L 153.22422275367006 0.5 L 153.22422275367006 3.5 L 160.22422275367006 0 L 153.22422275367006 -3.5 L 153.22422275367006 -0.5 L 105.00273637683503 -0.5 Z"/><text text-anchor="middle" pointer-events="none" font-size="8px" fill="#000000" x="89.11211137683503" y="3" font-family="Helvetica Neue, Helvetica, Arial, sans-serif">TESTS</text></g><g class="relationship" transform="translate(-389.029750750351 11.917717728530576) rotate(322.6083929306162)"><path class="b-outline" fill="#A5ABB6" stroke="none" d="M 25 0.5 L 79.37608175978814 0.5 L 79.37608175978814 -0.5 L 25 -0.5 Z M 112.93076925978814 0.5 L 167.30685101957627 0.5 L 167.30685101957627 3.5 L 174.30685101957627 0 L 167.30685101957627 -3.5 L 167.30685101957627 -0.5 L 112.93076925978814 -0.5 Z"/><text text-anchor="middle" pointer-events="none" font-size="8px" fill="#000000" x="96.15342550978814" y="3" font-family="Helvetica Neue, Helvetica, Arial, sans-serif">FUNDS</text></g><g class="relationship" transform="translate(-215.43566184263548 67.18740324608669) rotate(357.1988635941839)"><path class="b-outline" fill="#A5ABB6" stroke="none" d="M 25 0.5 L 51.157387883338956 0.5 L 51.157387883338956 -0.5 L 25 -0.5 Z M 73.60660663333896 0.5 L 99.76399451667791 0.5 L 99.76399451667791 3.5 L 106.76399451667791 0 L 99.76399451667791 -3.5 L 99.76399451667791 -0.5 L 73.60660663333896 -0.5 Z"/><text text-anchor="middle" pointer-events="none" font-size="8px" fill="#000000" x="62.381997258338956" y="3" font-family="Helvetica Neue, Helvetica, Arial, sans-serif">HAS</text></g><g class="relationship" transform="translate(-230.67974349478956 -109.11325378497587) rotate(409.15553246838977)"><path class="b-outline" fill="#A5ABB6" stroke="none" d="M 25 0.5 L 69.54516372161633 0.5 L 69.54516372161633 -0.5 L 25 -0.5 Z M 147.99438247161635 0.5 L 192.53954619323267 0.5 L 192.53954619323267 3.5 L 199.53954619323267 0 L 192.53954619323267 -3.5 L 192.53954619323267 -0.5 L 147.99438247161635 -0.5 Z"/><text text-anchor="middle" pointer-events="none" font-size="8px" fill="#000000" x="108.76977309661633" y="3" font-family="Helvetica Neue, Helvetica, Arial, sans-serif">COMMERCIALIZED</text></g><g class="relationship" transform="translate(-4.855226381281682 188.52120605198007) rotate(238.28064800064283)"><path class="b-outline" fill="#A5ABB6" stroke="none" d="M 25 0.5 L 60.380028481174094 0.5 L 60.380028481174094 -0.5 L 25 -0.5 Z M 82.8292472311741 0.5 L 118.20927571234819 0.5 L 118.20927571234819 3.5 L 125.20927571234819 0 L 118.20927571234819 -3.5 L 118.20927571234819 -0.5 L 82.8292472311741 -0.5 Z"/><text text-anchor="middle" pointer-events="none" font-size="8px" fill="#000000" x="71.6046378561741" y="3" transform="rotate(180 71.6046378561741 0)" font-family="Helvetica Neue, Helvetica, Arial, sans-serif">HAS</text></g><g class="relationship" transform="translate(-200.92735115306866 215.174601156873) rotate(307.1722582227013)"><path class="b-outline" fill="#A5ABB6" stroke="none" d="M 25 0.5 L 82.1767939181678 0.5 L 82.1767939181678 -0.5 L 25 -0.5 Z M 104.6260126681678 0.5 L 161.8028065863356 0.5 L 161.8028065863356 3.5 L 168.8028065863356 0 L 161.8028065863356 -3.5 L 161.8028065863356 -0.5 L 104.6260126681678 -0.5 Z"/><text text-anchor="middle" pointer-events="none" font-size="8px" fill="#000000" x="93.4014032931678" y="3" font-family="Helvetica Neue, Helvetica, Arial, sans-serif">HAS</text></g></g><g class="layer nodes"><g class="node" aria-label="graph-node0" transform="translate(-351.5525337430473,-245.69091093584706)"><circle class="b-outline" cx="0" cy="0" r="25" fill="#F79767" stroke="#f36924" stroke-width="2px"/><text class="caption" text-anchor="middle" pointer-events="none" x="0" y="5" font-size="10px" fill="#FFFFFF" font-family="Helvetica Neue, Helvetica, Arial, sans-serif"> Enterprise</text></g><g class="node" aria-label="graph-node1" transform="translate(-187.7808584764029,-233.18191161398067)"><circle class="b-outline" cx="0" cy="0" r="25" fill="#F79767" stroke="#f36924" stroke-width="2px"/><text class="caption" text-anchor="middle" pointer-events="none" x="0" y="5" font-size="10px" fill="#FFFFFF" font-family="Helvetica Neue, Helvetica, Arial, sans-serif"> Problem</text></g><g class="node" aria-label="graph-node4" transform="translate(-468.2473864880006,-39.859793690456826)"><circle class="b-outline" cx="0" cy="0" r="25" fill="#57C7E3" stroke="#23b3d7" stroke-width="2px"/><text class="caption" text-anchor="middle" pointer-events="none" x="0" y="0" font-size="10px" fill="#2A2C34" font-family="Helvetica Neue, Helvetica, Arial, sans-serif"> Innovation</text><text class="caption" text-anchor="middle" pointer-events="none" x="0" y="10" font-size="10px" fill="#2A2C34" font-family="Helvetica Neue, Helvetica, Arial, sans-serif"> Partner</text></g><g class="node" aria-label="graph-node7" transform="translate(-368.5914038219462,141.8434872295205)"><circle class="b-outline" cx="0" cy="0" r="25" fill="#F79767" stroke="#f36924" stroke-width="2px"/><text class="caption" text-anchor="middle" pointer-events="none" x="0" y="5" font-size="10px" fill="#FFFFFF" font-family="Helvetica Neue, Helvetica, Arial, sans-serif"> Talent</text></g><g class="node" aria-label="graph-node8" transform="translate(-530.4074674103106,219.76896278067795)"><circle class="b-outline" cx="0" cy="0" r="25" fill="#C990C0" stroke="#b261a5" stroke-width="2px"/><text class="caption" text-anchor="middle" pointer-events="none" x="0" y="0" font-size="10px" fill="#FFFFFF" font-family="Helvetica Neue, Helvetica, Arial, sans-serif"> Business</text><text class="caption" text-anchor="middle" pointer-events="none" x="0" y="10" font-size="10px" fill="#FFFFFF" font-family="Helvetica Neue, Helvetica, Arial, sans-serif"> Devel…</text></g><g class="node" aria-label="graph-node9" transform="translate(-371.54728090167475,257.83996512928223)"><circle class="b-outline" cx="0" cy="0" r="25" fill="#C990C0" stroke="#b261a5" stroke-width="2px"/><text class="caption" text-anchor="middle" pointer-events="none" x="0" y="5" font-size="10px" fill="#FFFFFF" font-family="Helvetica Neue, Helvetica, Arial, sans-serif"> Develop…</text></g><g class="node" aria-label="graph-node10" transform="translate(-454.18323419286696,231.6844873957436)"><circle class="b-outline" cx="0" cy="0" r="25" fill="#C990C0" stroke="#b261a5" stroke-width="2px"/><text class="caption" text-anchor="middle" pointer-events="none" x="0" y="0" font-size="10px" fill="#FFFFFF" font-family="Helvetica Neue, Helvetica, Arial, sans-serif"> Project</text><text class="caption" text-anchor="middle" pointer-events="none" x="0" y="10" font-size="10px" fill="#FFFFFF" font-family="Helvetica Neue, Helvetica, Arial, sans-serif"> Mana…</text></g><g class="node" aria-label="graph-node11" transform="translate(-475.6769645890038,149.07239686509956)"><circle class="b-outline" cx="0" cy="0" r="25" fill="#C990C0" stroke="#b261a5" stroke-width="2px"/><text class="caption" text-anchor="middle" pointer-events="none" x="0" y="5" font-size="10px" fill="#FFFFFF" font-family="Helvetica Neue, Helvetica, Arial, sans-serif"> Marketing</text></g><g class="node" aria-label="graph-node12" transform="translate(-438.9452184318574,295.1426877369465)"><circle class="b-outline" cx="0" cy="0" r="25" fill="#C990C0" stroke="#b261a5" stroke-width="2px"/><text class="caption" text-anchor="middle" pointer-events="none" x="0" y="5" font-size="10px" fill="#FFFFFF" font-family="Helvetica Neue, Helvetica, Arial, sans-serif"> UI/UX</text></g><g class="node" aria-label="graph-node16" transform="translate(-389.029750750351,11.917717728530576)"><circle class="b-outline" cx="0" cy="0" r="25" fill="#57C7E3" stroke="#23b3d7" stroke-width="2px"/><text class="caption" text-anchor="middle" pointer-events="none" x="0" y="5" font-size="10px" fill="#2A2C34" font-family="Helvetica Neue, Helvetica, Arial, sans-serif"> Investor</text></g><g class="node" aria-label="graph-node18" transform="translate(136.17171243431994,-164.0489971629873)"><circle class="b-outline" cx="0" cy="0" r="25" fill="#F79767" stroke="#f36924" stroke-width="2px"/><text class="caption" text-anchor="middle" pointer-events="none" x="0" y="0" font-size="10px" fill="#FFFFFF" font-family="Helvetica Neue, Helvetica, Arial, sans-serif"> Enterprise</text><text class="caption" text-anchor="middle" pointer-events="none" x="0" y="10" font-size="10px" fill="#FFFFFF" font-family="Helvetica Neue, Helvetica, Arial, sans-serif"> 2</text></g><g class="node" aria-label="graph-node3" transform="translate(-33.34053466464189,-55.041979397813975)"><circle class="b-outline" cx="0" cy="0" r="25" fill="#F79767" stroke="#f36924" stroke-width="2px"/><text class="caption" text-anchor="middle" pointer-events="none" x="0" y="0" font-size="10px" fill="#FFFFFF" font-family="Helvetica Neue, Helvetica, Arial, sans-serif"> Use Case</text><text class="caption" text-anchor="middle" pointer-events="none" x="0" y="10" font-size="10px" fill="#FFFFFF" font-family="Helvetica Neue, Helvetica, Arial, sans-serif"> 2</text></g><g class="node" aria-label="graph-node17" transform="translate(18.471067045423695,4.771657128255015)"><circle class="b-outline" cx="0" cy="0" r="25" fill="#F79767" stroke="#f36924" stroke-width="2px"/><text class="caption" text-anchor="middle" pointer-events="none" x="0" y="0" font-size="10px" fill="#FFFFFF" font-family="Helvetica Neue, Helvetica, Arial, sans-serif"> Use Case</text><text class="caption" text-anchor="middle" pointer-events="none" x="0" y="10" font-size="10px" fill="#FFFFFF" font-family="Helvetica Neue, Helvetica, Arial, sans-serif"> 3</text></g><g class="node" aria-label="graph-node6" transform="translate(-215.43566184263548,67.18740324608669)"><circle class="b-outline" cx="0" cy="0" r="25" fill="#57C7E3" stroke="#23b3d7" stroke-width="2px"/><text class="caption" text-anchor="middle" pointer-events="none" x="0" y="5" font-size="10px" fill="#2A2C34" font-family="Helvetica Neue, Helvetica, Arial, sans-serif"> Founder</text></g><g class="node" aria-label="graph-node5" transform="translate(-230.67974349478956,-109.11325378497587)"><circle class="b-outline" cx="0" cy="0" r="25" fill="#F79767" stroke="#f36924" stroke-width="2px"/><text class="caption" text-anchor="middle" pointer-events="none" x="0" y="5" font-size="10px" fill="#FFFFFF" font-family="Helvetica Neue, Helvetica, Arial, sans-serif"> Startup</text></g><g class="node" aria-label="graph-node14" transform="translate(-4.855226381281682,188.52120605198007)"><circle class="b-outline" cx="0" cy="0" r="25" fill="#F79767" stroke="#f36924" stroke-width="2px"/><text class="caption" text-anchor="middle" pointer-events="none" x="0" y="5" font-size="10px" fill="#FFFFFF" font-family="Helvetica Neue, Helvetica, Arial, sans-serif"> Research</text></g><g class="node" aria-label="graph-node15" transform="translate(-200.92735115306866,215.174601156873)"><circle class="b-outline" cx="0" cy="0" r="25" fill="#57C7E3" stroke="#23b3d7" stroke-width="2px"/><text class="caption" text-anchor="middle" pointer-events="none" x="0" y="5" font-size="10px" fill="#2A2C34" font-family="Helvetica Neue, Helvetica, Arial, sans-serif"> Researc…</text></g><g class="node" aria-label="graph-node2" transform="translate(-3.6626591430498934,-129.53499730210936)"><circle class="b-outline" cx="0" cy="0" r="25" fill="#F79767" stroke="#f36924" stroke-width="2px"/><text class="caption" text-anchor="middle" pointer-events="none" x="0" y="0" font-size="10px" fill="#FFFFFF" font-family="Helvetica Neue, Helvetica, Arial, sans-serif"> Use Case</text><text class="caption" text-anchor="middle" pointer-events="none" x="0" y="10" font-size="10px" fill="#FFFFFF" font-family="Helvetica Neue, Helvetica, Arial, sans-serif"> 1</text></g><g class="node" aria-label="graph-node13" transform="translate(-83.8291031291233,60.74815215780034)"><circle class="b-outline" cx="0" cy="0" r="25" fill="#F79767" stroke="#f36924" stroke-width="2px"/><text class="caption" text-anchor="middle" pointer-events="none" x="0" y="5" font-size="10px" fill="#FFFFFF" font-family="Helvetica Neue, Helvetica, Arial, sans-serif"> Idea</text></g></g></svg>